<?xml version="1.0" standalone="no"?>
<!DOCTYPE svg PUBLIC "-//W3C//DTD SVG 20010904//EN"
 "http://www.w3.org/TR/2001/REC-SVG-20010904/DTD/svg10.dtd">
<svg version="1.0" xmlns="http://www.w3.org/2000/svg"
 width="150.000000pt" height="140.000000pt" viewBox="0 0 150.000000 140.000000"
 preserveAspectRatio="xMidYMid meet">

<g transform="translate(0.000000,140.000000) scale(0.100000,-0.100000)"
fill="#000000" stroke="none">
<path d="M448 1079 c-146 -21 -218 -109 -218 -266 0 -45 5 -106 11 -135 15
-71 61 -184 99 -247 l32 -51 69 0 70 0 -25 43 c-45 77 -87 222 -93 322 -12
191 47 285 176 285 42 0 56 -5 83 -29 32 -28 32 -29 37 -149 4 -66 9 -123 12
-127 8 -7 115 -9 127 -1 5 3 12 58 16 122 4 65 11 125 17 135 15 29 63 49 114
49 123 0 185 -102 172 -282 -10 -121 -38 -209 -115 -360 -2 -5 27 -8 65 -8
l69 0 33 55 c19 31 50 102 69 158 31 89 36 114 36 202 1 82 -3 108 -20 146
-46 100 -130 143 -274 142 -62 -1 -101 -7 -145 -23 -74 -28 -114 -28 -185 -3
-67 25 -156 34 -232 22z"/>
<path d="M460 290 c0 -16 101 -86 160 -111 46 -20 72 -24 155 -24 91 0 106 3
165 31 36 17 85 50 110 72 l45 41 -60 1 c-55 0 -65 -3 -113 -40 -108 -80 -209
-80 -307 1 -42 35 -53 39 -101 39 -30 0 -54 -4 -54 -10z"/>
</g>
</svg>
