<svg xmlns="http://www.w3.org/2000/svg" width="1325.333" height="258.667" version="1.0" viewBox="0 0 994 194">
  <path d="M385.7 7.4c-13.2 3.8-23.8 12.2-28.7 22.9-11.1 23.7-1.6 41.3 23 42.5 14.8.7 28-3.6 36-11.9l4.2-4.3-.7 4.6c-1.1 7.3 0 10.6 4.1 11.7 1.8.5 4.6.6 6.1.2 2.8-.7 2.8-.9 3.4-10.4.7-10.1 1.7-12.8 6.7-17.4 3.1-2.9 5.8-3 6.5-.2.3 1.2.3 5.8 0 10.3-.9 13.4 3.1 17.9 15.7 18 5.3 0 7.5-.5 11.4-2.7l4.8-2.7 2.8 2c3.6 2.5 11.3 4.2 15.8 3.4 10.1-1.7 19.6-5.7 24.5-10.2l2.7-2.6v4.6c0 2.6.3 5.3.6 6.2.8 2 6 2.9 9.9 1.8 2.7-.8 3-1.3 2.7-4.3-.8-9.1 7.7-24.5 13-23.7 2.3.3 2.3.4 2 13-.4 14.3-.1 14.8 7.7 14.8 6.2 0 7.1-.7 7.1-5.4 0-6.5 2.6-13.8 6.6-18.4 3.9-4.6 6.9-5.4 7.9-2.2.4 1.2.3 5.4 0 9.6-.9 9.2.3 12.6 5.3 15 5.5 2.7 15.5 2.5 21.4-.4l4.7-2.3 3.1 2.3c2.6 1.9 4.4 2.3 9.3 2.2 6.6-.1 15.2-3.1 18.2-6.4 2.5-2.8.1-3.4-4.4-1-4.7 2.4-8 2.5-10.7.6-2.8-2.1-2.2-9 1.7-19.8 2.6-7.4 3-9.3 2.1-11.3-1-2.1-1.9-2.5-5.4-2.5-2.4 0-5.9.8-7.8 1.8-3.1 1.6-3.5 2.3-5.2 9.7-1 4.4-1.9 11-2.1 14.7-.2 6.3-.4 6.7-3.3 8.3-4.2 2.3-8.5 1.6-10.2-1.5-1.5-2.9-.9-10.9 1.3-17.3 4.2-12-.8-16.2-14.6-12.1-4.1 1.2-6.7 2.9-10.7 6.9-5.2 5.2-5.3 5.3-4.6 2.2 2-8.4-.2-11.2-8.3-10.4-6.6.7-14.6 5-18.6 9.9-1.7 2.1-3.2 3.6-3.4 3.4-.2-.2.7-3.1 2.1-6.5 3-6.9 3.3-10.6 1-11.5-2-.8-8.8-.8-10.8 0-1.9.7-5.2 11.1-6.2 19.3-.6 5.4-1.1 6.5-4.2 9.3-7.7 6.7-20.5 9.8-25.1 6.1l-2.4-2 5.1-1.8c10.3-3.7 19.6-13 19-18.9-1-10-22-9.2-34.1 1.4-5.2 4.6-7.9 10.6-7.6 16.7.3 3.9 0 4.6-2.6 6.3-9.4 6.2-14.2-2.2-9.9-17 .9-3 1.9-7.4 2.1-9.6.4-3.5.1-4.4-1.8-5.8-1.3-.9-4-1.6-6.1-1.6-4.4 0-13.6 3.3-17.2 6.1-1.4 1.1-2.6 1.6-2.6 1.1 0-1.3 4.8-12.9 8.1-19.4 3.2-6.3 3.7-10.9 1.4-12.8-1.9-1.6-12.8-.8-15 1-2.5 2.1-8.9 24.7-11.9 42.2-.4 2.1-1.3 3.8-1.9 3.8-.7 0-2.8 1.6-4.7 3.5-5.1 5.3-12.8 7.8-22.2 7.3-6.3-.4-8.5-1-11.8-3.2-5.8-3.8-7.4-8-6.7-18.1.7-9.7 2.6-16.3 6.9-23.5 8.7-14.5 22.8-13.1 20.4 2.1-.6 3.6-.4 4 2 4.9 6.3 2.4 13.9 0 15-4.8.3-1.5.7-3.2.9-3.8.7-2.4-3-7.6-7.3-10.1-3.7-2.2-6-2.7-12.6-3-4.8-.1-10.1.3-12.9 1.1zm121 33.1c1 2.8-2.7 10.2-7.2 14.4-4.9 4.5-6.5 5.1-6.5 2.3 0-9.1 11.3-22.8 13.7-16.7zM625.5 19.6c-11.2 4.1-8.5 11.3 3.8 10.1 5.5-.5 8.7-2.9 8.7-6.7 0-5.1-4.5-6.3-12.5-3.4zM464.5 85.7c-10.8 1.6-17.5 5.9-21.1 13.6-4.2 9.1-3.2 24.5 2.7 39.4 1.5 3.9 4.2 9.4 5.9 12.2l3.2 5.1h14.9l-2.5-4.3c-4.5-7.7-8.7-22.2-9.3-32.2-1.1-18.8 4.7-28.5 17.1-28.5 3.6 0 5.2.6 7.8 2.9 3.2 2.8 3.2 2.9 3.7 14.9.4 6.6.9 12.3 1.3 12.7.9.9 12.1 1 13.5.2.5-.4 1.3-5.9 1.7-12.3.4-6.5 1.1-12.5 1.7-13.5 2.4-4.5 12.1-6.4 17.8-3.4 7.5 3.8 10.8 13 9.8 26.7-1 12.1-3.8 20.9-11.5 36-.2.5 3 .8 7 .8h7.4l3.3-5.5c4.9-8.1 9.9-23.5 10.7-33.1 1.2-15.1-4.6-26.2-15.9-30-7.6-2.6-21.4-2.3-29.2.6-7.4 2.8-10.5 2.8-17.5.2-5.6-2-17.1-3.3-22.5-2.5zM187 133v44h23v-39.5l9.8 9.8c5.3 5.3 10.4 9.7 11.2 9.7.8 0 5.6-4.2 10.7-9.2l9.3-9.3V177h23V89h-3.9c-3.7 0-4.5.7-21.1 18.2-9.5 10.1-17.6 18.4-18 18.6-.4.1-8.3-8.1-17.5-18.3L196.7 89H187v44zM292 133v44h57v-19l-16-.1c-8.8-.1-16.6-.2-17.2-.3-.9-.1-1.3-2.4-1.3-8.1v-8l15.3-.3 15.2-.3V122h-31v-13h34V89h-56v44zM362 99v10l16.4.2 16.4.3-17.9 32c-9.8 17.6-17.9 32.8-17.9 33.7 0 1.7 2.4 1.8 35.4 1.8h35.5l.3-9.1c.2-5 .1-9.5-.2-10-.3-.5-8.5-1-18.2-1.1l-17.7-.3 6.1-11c3.3-6.1 11.3-20.5 17.9-32.2 6.5-11.7 11.9-21.9 11.9-22.7 0-1.4-3.9-1.6-34-1.6h-34v10zM651 133v44h57v-9.5c0-6.9-.3-9.5-1.2-9.5-.7-.1-8.4-.1-17 0l-15.8.1V141h30v-19h-29.8l-.4-6.5-.3-6.5H707V89h-56v44zM723 133v44h56v-20h-33V89h-23v44zM788 98.5v9.5h11v50h-12.1l.3 9.3.3 9.2h45l.3-9.2.3-9.3H821v-50h11V89h-44v9.5zM568 134.1v44l25.8-.3c24.2-.3 25.9-.4 29.8-2.5 15.3-8.2 19.4-31.1 7.3-40.6-3.1-2.4-3.2-2.7-1.6-4.4 2.8-3.2 4.7-9 4.7-14.5-.1-9.9-5.8-18.4-15.5-22.9l-6-2.9H568v44.1zm42-22.1c2.5 2.5 2.6 7.1.1 10.1-1.8 2.2-2.7 2.4-10.8 2.4h-8.8l-.3-7.3-.3-7.2h9.1c7.7 0 9.3.3 11 2zm4.3 34.2c2.3 3.1 1.7 9.2-1.2 10.7-.9.6-6.4 1.1-12.2 1.2l-10.4.2-.3-7.7-.3-7.7 11.2.3c10.8.3 11.3.4 13.2 3zM464 165c0 1.4 9.9 8.6 15.5 11.2 4.2 1.9 6.7 2.2 16 2.3 10.3 0 11.4-.2 17.5-3.1 3.6-1.7 8.5-5 11-7.2l4.5-4.1-7.1-.1c-6 0-7.4.3-9 2.1-3 3.3-9.5 6.7-14.2 7.5-5.9.9-12.1-1.1-17.7-5.7-4.3-3.6-5.2-3.9-10.6-3.9-3.2 0-5.9.4-5.9 1z"/>
</svg>
